<?xml version="1.0" encoding="UTF-8" standalone="no"?>
<!-- Created with Inkscape (http://www.inkscape.org/) -->

<svg
   width="256"
   height="256"
   viewBox="0 0 67.733334 67.733333"
   version="1.1"
   id="svg1"
   xml:space="preserve"
   inkscape:export-filename="..\..\MyApp\git-simple-craft\public\icon-512.png"
   inkscape:export-xdpi="192"
   inkscape:export-ydpi="192"
   sodipodi:docname="git-simple-craft.svg"
   inkscape:version="1.4.3 (0d15f75, 2025-12-25)"
   xmlns:inkscape="http://www.inkscape.org/namespaces/inkscape"
   xmlns:sodipodi="http://sodipodi.sourceforge.net/DTD/sodipodi-0.dtd"
   xmlns="http://www.w3.org/2000/svg"
   xmlns:svg="http://www.w3.org/2000/svg"><sodipodi:namedview
     id="namedview1"
     pagecolor="#ffffff"
     bordercolor="#000000"
     borderopacity="0.25"
     inkscape:showpageshadow="2"
     inkscape:pageopacity="0.0"
     inkscape:pagecheckerboard="0"
     inkscape:deskcolor="#212121"
     inkscape:document-units="mm"
     inkscape:zoom="2.4492188"
     inkscape:cx="124.5295"
     inkscape:cy="135.14513"
     inkscape:window-width="933"
     inkscape:window-height="852"
     inkscape:window-x="130"
     inkscape:window-y="0"
     inkscape:window-maximized="0"
     inkscape:current-layer="layer1" /><defs
     id="defs1">
    
  
    
  
    
  
    
  
    
  
    
  
    
  
    
  
    
  
    
  
    
  </defs><g
     inkscape:groupmode="layer"
     id="layer2"
     inkscape:label="Layer 2" /><g
     inkscape:groupmode="layer"
     id="layer3"
     inkscape:label="Layer 3"><g
       inkscape:groupmode="layer"
       id="layer4"
       inkscape:label="Layer 4" /><g
       inkscape:label="Layer 1"
       inkscape:groupmode="layer"
       id="layer1"><g
         id="g9"
         transform="translate(-0.71484688,0.61358232)"><path
           d="m 28.40501,1.8579233 a 4.4725705,4.3701155 0 0 0 -4.472279,4.3704212 4.4725705,4.3701155 0 0 0 4.472279,4.3698095 4.4725705,4.3701155 0 0 0 3.024443,-1.1637536 l 1.447923,4.6359516 c 0.7202,-2.255734 -0.401895,-4.045 -1.146094,-4.9207339 A 4.4725705,4.3701155 0 0 0 32.877376,6.2283149 4.4725705,4.3701155 0 0 0 28.405097,1.8578937 Z"
           fill="#f23a30"
           style="stroke-width:0.299045;paint-order:stroke fill markers"
           id="path1" /><path
           d="M 67.035601,37.64932 A 32.454086,26.998952 0 0 1 34.581514,64.648275 32.454086,26.998952 0 0 1 2.1274261,37.64932 32.454086,26.998952 0 0 1 34.581514,10.650368 32.454086,26.998952 0 0 1 67.035601,37.64932 Z"
           fill="#f23a30"
           id="path2"
           style="stroke-width:0.299045" /><g
           id="g8"
           transform="matrix(2.0341986,0,0,2.0341986,-33.566657,-27.949392)"><path
             d="m 35.355388,34.297233 c -0.299263,0.116916 -0.623822,0.181384 -0.962215,0.181384 -0.312062,0 -0.612418,-0.05483 -0.891936,-0.155029 v 6.400126 a 0.89216962,0.89216962 0 0 0 0.891936,0.891935 0.89216962,0.89216962 0 0 0 0.892451,-0.891935 v -3.213241 c 0.77413,0.704104 1.736383,1.207896 2.811715,1.371493 -0.08771,-0.263324 -0.135392,-0.544022 -0.135392,-0.835091 0,-0.338238 0.06405,-0.662594 0.180867,-0.961699 -1.407084,-0.280906 -2.506583,-1.380835 -2.787426,-2.787943 z"
             style="baseline-shift:baseline;display:inline;overflow:visible;opacity:1;vector-effect:none;fill:#eae3f5;fill-opacity:1;enable-background:accumulate;stop-color:#000000;stop-opacity:1"
             id="path8" /><path
             d="m 26.363688,22.880358 c -1.467627,0 -2.676322,1.208695 -2.676322,2.676323 v 11.598258 c 0,1.467628 1.208695,2.676323 2.676322,2.676323 h 4.461227 a 0.89216962,0.89216962 0 0 0 0.891935,-0.891935 0.89216962,0.89216962 0 0 0 -0.891935,-0.892452 h -4.461227 c -0.503299,0 -0.891935,-0.388637 -0.891935,-0.891936 V 25.556681 c 0,-0.503299 0.388636,-0.891935 0.891935,-0.891935 h 3.479891 a 0.89225884,0.89225884 0 0 0 0.0088,0 c 0.304318,-0.003 0.585558,0.146315 0.752926,0.400492 a 0.89225884,0.89225884 0 0 0 0.0067,0.0088 l 0.716235,1.062984 c 0.49446,0.750829 1.336504,1.203913 2.235523,1.204061 h 7.07502 c 0.503299,0 0.891935,0.388636 0.891935,0.891935 v 4.461227 a 0.89216962,0.89216962 0 0 0 0.892452,0.891935 0.89216962,0.89216962 0 0 0 0.891936,-0.891935 v -4.461227 c 0,-1.467627 -1.208695,-2.676322 -2.676323,-2.676322 h -7.07502 c -0.301105,-5e-5 -0.580084,-0.149021 -0.745691,-0.400492 a 0.89225884,0.89225884 0 0 0 -0.0052,-0.0088 l -0.71623,-1.062985 v -5.16e-4 h -5.17e-4 l -5.17e-4,-5.17e-4 h -5.17e-4 -5.16e-4 l -5.17e-4,-5.17e-4 h -5.17e-4 l -5.17e-4,-5.17e-4 c -0.49992,-0.756827 -1.351108,-1.210887 -2.25826,-1.201994 z"
             style="baseline-shift:baseline;display:inline;overflow:visible;opacity:1;vector-effect:none;fill:#eae3f5;fill-opacity:1;enable-background:accumulate;stop-color:#000000;stop-opacity:1"
             id="path7" /><path
             d="m 34.393173,29.125455 c -1.467629,0 -2.676323,1.208695 -2.676323,2.676323 0,1.467628 1.208694,2.676839 2.676323,2.676839 1.467627,0 2.676839,-1.209211 2.676839,-2.676839 0,-1.467628 -1.209212,-2.676323 -2.676839,-2.676323 z m 0,1.784387 c 0.503298,0 0.892451,0.388637 0.892451,0.891936 0,0.503298 -0.389153,0.892452 -0.892451,0.892452 -0.503299,0 -0.891936,-0.389154 -0.891936,-0.892452 0,-0.503299 0.388637,-0.891936 0.891936,-0.891936 z"
             style="baseline-shift:baseline;display:inline;overflow:visible;opacity:1;vector-effect:none;fill:#eae3f5;fill-opacity:1;enable-background:accumulate;stop-color:#000000;stop-opacity:1"
             id="path6" /><path
             d="m 40.638786,35.370552 c -1.467628,0 -2.676839,1.208695 -2.676839,2.676323 0,1.467627 1.209211,2.676839 2.676839,2.676839 1.467628,0 2.676323,-1.209212 2.676323,-2.676839 0,-1.467628 -1.208695,-2.676323 -2.676323,-2.676323 z m 0,1.784387 c 0.503299,0 0.891935,0.388637 0.891935,0.891936 0,0.503298 -0.388636,0.892452 -0.891935,0.892452 -0.503299,0 -0.892452,-0.389154 -0.892452,-0.892452 0,-0.503299 0.389153,-0.891936 0.892452,-0.891936 z"
             style="baseline-shift:baseline;display:inline;overflow:visible;opacity:1;vector-effect:none;fill:#eae3f5;fill-opacity:1;enable-background:accumulate;stop-color:#000000;stop-opacity:1"
             id="path5" /></g></g></g></g></svg>
